<svg width="149" height="545" viewBox="0 0 149 545" fill="none" xmlns="http://www.w3.org/2000/svg">
<g clip-path="url(#clip0_38_5)">
<mask id="mask0_38_5" style="mask-type:luminance" maskUnits="userSpaceOnUse" x="0" y="246" width="149" height="299">
<path d="M149 246H0V545H149V246Z" fill="white"/>
</mask>
<g mask="url(#mask0_38_5)">
<path fill-rule="evenodd" clip-rule="evenodd" d="M71.5813 497.698H83.6115L109.669 515.265C109.989 513.344 110.197 511.384 110.197 509.372C110.197 489.693 94.1992 473.74 74.466 473.74C59.2596 473.74 46.3065 483.231 41.1485 496.582L77.4306 521.042H65.4005L39.2746 503.427C38.947 505.364 38.7393 507.34 38.7393 509.368C38.7393 529.047 54.7368 545 74.47 545C89.6924 545 102.657 535.489 107.804 522.118L71.5813 497.698Z" fill="white"/>
<path fill-rule="evenodd" clip-rule="evenodd" d="M80.3392 468.401L102.05 398.17H46.9497L68.6007 468.401H80.3392Z" fill="white"/>
<path fill-rule="evenodd" clip-rule="evenodd" d="M103.812 392.289L125.527 322.057H97.9749L86.2364 357.171L74.502 330.85L62.7635 357.171L51.0251 322.057H23.4729L45.1239 392.289H62.7635L74.502 365.964L86.2364 392.289H103.812Z" fill="white"/>
<path fill-rule="evenodd" clip-rule="evenodd" d="M80.3393 392.289V386.464H68.6008V392.289H80.3393Z" fill="white"/>
<path fill-rule="evenodd" clip-rule="evenodd" d="M127.293 316.232L131.852 301.617H100.896V286.939H136.351L139.942 275.233H100.896V260.619H144.441L149 246H77.4226V316.232H127.293Z" fill="white"/>
<path fill-rule="evenodd" clip-rule="evenodd" d="M71.5814 316.232V281.114H48.0445V295.732H56.8624V301.617H44.153L30.4688 260.619H56.8624V263.527H71.5814V246H0L21.651 316.232H71.5814Z" fill="white"/>
</g>
</g>
<path d="M26.1468 69C22.1496 84.726 31.9457 110.106 57.6468 123.5C47.5116 98.0713 49.6107 64.1345 64.147 34C81.4259 2.33781 92.6694 4.34557 100.272 0C84.783 8.57121 84.647 26.5 84.647 37C84.647 47.5 91.147 66.5 103.147 82C115.147 97.5 134.635 122.081 141 140.5C153.428 176.461 140.724 221.408 97.7184 223C96.9842 225.813 107.773 188.805 112.147 169.5C108.669 203.208 89.3163 199.993 76.7594 205.5C61.2578 202.211 60.6353 204.474 50.6468 186.5C47.6467 224 48.7723 223 48.7723 223C11.651 223 -4.93059 185.699 1.2722 153.373C10.8417 103.502 17.9453 88.0439 26.1468 69Z" fill="white"/>
<path d="M38.6656 172C47.2913 184.626 53.5235 192.729 73.9826 193C97.8661 190.764 99.8792 163.238 103.796 140C121.409 176.798 117.6 213.173 98.7502 223H47.8389C37.1712 213.747 30.773 198.619 38.6656 172Z" fill="white"/>
<defs>
<clipPath id="clip0_38_5">
<rect width="149" height="299" fill="white" transform="translate(0 246)"/>
</clipPath>
</defs>
</svg>
